<svg width="26" height="26" viewBox="0 0 26 26" fill="none" xmlns="http://www.w3.org/2000/svg">
<g id="Close" clip-path="url(#clip0_4_1947)">
<path id="Vector" d="M14.7325 12.5949C14.7086 12.5883 14.6861 12.5771 14.6665 12.5619C14.6469 12.5467 14.6305 12.5277 14.6182 12.5061C14.6059 12.4845 14.598 12.4607 14.5949 12.4361C14.5919 12.4115 14.5937 12.3865 14.6003 12.3625L17.2204 2.82352C17.2998 2.53359 17.2608 2.224 17.1119 1.96285C16.963 1.7017 16.7165 1.51039 16.4266 1.43099C16.1367 1.3516 15.8271 1.39062 15.5659 1.53949C15.3048 1.68835 15.1135 1.93486 15.0341 2.22479L12.4131 11.7608C12.4066 11.7847 12.3954 11.8072 12.3802 11.8268C12.3649 11.8464 12.346 11.8628 12.3244 11.8751C12.3028 11.8874 12.279 11.8953 12.2544 11.8984C12.2297 11.9014 12.2047 11.8996 12.1808 11.893L2.64365 9.27621C2.5002 9.23678 2.35039 9.22599 2.20277 9.24446C2.05515 9.26293 1.91261 9.31029 1.78329 9.38384C1.52213 9.53239 1.33067 9.7786 1.25104 10.0683C1.17141 10.358 1.21012 10.6675 1.35867 10.9287C1.50722 11.1898 1.75343 11.3813 2.04314 11.4609L11.5811 14.0807C11.6051 14.0873 11.6275 14.0985 11.6471 14.1137C11.6667 14.1289 11.6832 14.1479 11.6954 14.1695C11.7077 14.1911 11.7156 14.2149 11.7187 14.2395C11.7218 14.2641 11.72 14.2891 11.7133 14.3131L9.09494 23.852C9.05558 23.9955 9.04486 24.1453 9.0634 24.2929C9.08193 24.4405 9.12936 24.583 9.20298 24.7123C9.35165 24.9734 9.59795 25.1647 9.8877 25.2442C10.0312 25.2836 10.181 25.2943 10.3286 25.2758C10.4762 25.2572 10.6187 25.2098 10.748 25.1362C11.0091 24.9875 11.2004 24.7412 11.2799 24.4515L13.899 14.9122C13.9056 14.8882 13.9168 14.8658 13.932 14.8462C13.9472 14.8266 13.9662 14.8101 13.9877 14.7979C14.0093 14.7856 14.0331 14.7777 14.0578 14.7746C14.0824 14.7715 14.1074 14.7734 14.1314 14.78L23.6704 17.4C23.9601 17.4797 24.2695 17.441 24.5307 17.2924C24.7919 17.1439 24.9833 16.8977 25.063 16.6079C25.1426 16.3182 25.1039 16.0087 24.9553 15.7476C24.8068 15.4864 24.5606 15.295 24.2709 15.2153L14.7325 12.5949Z" fill="#868696"/>
</g>
<defs>
<clipPath id="clip0_4_1947">
<rect width="18.1245" height="18.1245" fill="white" transform="translate(0.797073 9.94128) rotate(-29.6443)"/>
</clipPath>
</defs>
</svg>
