<svg width="57" height="53" viewBox="0 0 57 53" fill="none" xmlns="http://www.w3.org/2000/svg">
<g id="Group 7">
<g id="Group 3">
<path id="Rectangle 146" d="M0.440796 23.0424L6.59953 19.5374L9.92682 25.384L3.76809 28.8889L0.440796 23.0424Z" fill="#80CAE2"/>
<path id="Rectangle 147" d="M11.4859 16.7565L17.6447 13.2516L20.972 19.0981L14.8132 22.6031L11.4859 16.7565Z" fill="#80CAE2"/>
<path id="Rectangle 148" d="M22.5309 10.4708L28.6896 6.96581L32.0169 12.8124L25.8582 16.3173L22.5309 10.4708Z" fill="#80CAE2"/>
<path id="Rectangle 149" d="M33.5759 4.18494L39.7346 0.679982L43.0619 6.52653L36.9032 10.0315L33.5759 4.18494Z" fill="#80CAE2"/>
</g>
<g id="Group 4">
<path id="Rectangle 146_2" d="M4.90169 30.8812L11.0604 27.3763L14.3877 33.2228L8.22898 36.7278L4.90169 30.8812Z" fill="#80CAE2"/>
<path id="Rectangle 147_2" d="M15.947 24.5951L22.1057 21.0901L25.433 26.9367L19.2743 30.4416L15.947 24.5951Z" fill="#80CAE2"/>
<path id="Rectangle 148_2" d="M26.9919 18.3093L33.1507 14.8044L36.478 20.6509L30.3192 24.1559L26.9919 18.3093Z" fill="#80CAE2"/>
<path id="Rectangle 149_2" d="M38.037 12.0234L44.1957 8.51842L47.523 14.365L41.3643 17.8699L38.037 12.0234Z" fill="#80CAE2"/>
</g>
<g id="Group 5">
<path id="Rectangle 146_3" d="M9.36285 38.72L15.5216 35.2151L18.8489 41.0616L12.6901 44.5666L9.36285 38.72Z" fill="#80CAE2"/>
<path id="Rectangle 147_3" d="M20.4083 32.4341L26.567 28.9292L29.8943 34.7757L23.7356 38.2807L20.4083 32.4341Z" fill="#80CAE2"/>
<path id="Rectangle 148_3" d="M31.4534 26.1484L37.6121 22.6434L40.9394 28.49L34.7806 31.9949L31.4534 26.1484Z" fill="#80CAE2"/>
<path id="Rectangle 149_3" d="M42.4983 19.8629L48.6571 16.3579L51.9843 22.2044L45.8256 25.7094L42.4983 19.8629Z" fill="#80CAE2"/>
</g>
<g id="Group 6">
<path id="Rectangle 146_4" d="M13.8242 46.5593L19.9829 43.0544L23.3102 48.9009L17.1515 52.4059L13.8242 46.5593Z" fill="#80CAE2"/>
<path id="Rectangle 147_4" d="M24.8696 40.2733L31.0283 36.7683L34.3556 42.6148L28.1969 46.1198L24.8696 40.2733Z" fill="#80CAE2"/>
<path id="Rectangle 148_4" d="M35.9146 33.9877L42.0733 30.4828L45.4006 36.3293L39.2419 39.8343L35.9146 33.9877Z" fill="#80CAE2"/>
<path id="Rectangle 149_4" d="M46.9596 27.7017L53.1183 24.1967L56.4456 30.0433L50.2869 33.5482L46.9596 27.7017Z" fill="#80CAE2"/>
</g>
</g>
</svg>
