<svg width="192" height="209" viewBox="0 0 192 209" fill="none" xmlns="http://www.w3.org/2000/svg">
<g id="Group 2">
<path id="Vector" d="M84.206 208.464C84.206 208.464 65.3099 150.75 110.653 124.945C155.997 99.1396 191.348 147.489 191.348 147.489L84.206 208.464Z" fill="#C15252"/>
<path id="Vector_2" d="M56.5939 106.487C61.2396 103.843 62.8624 97.9338 60.2185 93.2881C57.5747 88.6424 51.6653 87.0196 47.0196 89.6635C42.3739 92.3074 40.751 98.2168 43.3949 102.862C46.0388 107.508 51.9482 109.131 56.5939 106.487Z" fill="#CE8282"/>
<path id="Vector_3" d="M119.064 70.935C123.71 68.2911 125.333 62.3817 122.689 57.736C120.045 53.0903 114.136 51.4675 109.49 54.1114C104.844 56.7553 103.221 62.6646 105.865 67.3103C108.509 71.9561 114.419 73.5788 119.064 70.935Z" fill="#CE8282"/>
<path id="Vector_4" d="M111.281 104.64L99.215 86.766L85.7657 97.075L98.9269 125.749C102.341 123.283 105.203 120.132 107.33 116.497C109.457 112.862 110.803 108.824 111.281 104.64Z" fill="#D19582"/>
<path id="Vector_5" d="M49.6109 88.7198C51.319 92.2893 53.4225 95.6555 55.8819 98.7555C61.8791 107.024 70.4697 112.31 80.911 112.022C91.3523 111.734 103.198 107.03 109.735 98.6458C112.245 95.5574 114.102 91.9913 115.192 88.1639C116.282 84.3364 116.584 80.3273 116.078 76.3799C114.809 67.2147 109.407 57.6462 104.422 49.8204C85.9411 20.8015 61.8692 35.0893 61.8692 35.0893C61.8692 35.0893 27.9755 51.0058 49.6109 88.7198Z" fill="#F2C4B3"/>
<path id="Vector_6" d="M98.933 125.76L104.691 138.398C104.691 138.398 108.537 144.174 118.919 139.772C129.301 135.37 124.633 124.595 124.633 124.595L111.281 104.64C110.805 108.825 109.461 112.866 107.335 116.502C105.209 120.139 102.347 123.292 98.933 125.76Z" fill="#F2C4B3"/>
<path id="Vector_7" d="M70.2491 84.9392C71.1868 86.5869 71.2735 88.3027 70.4496 88.7715C69.6258 89.2404 68.1949 88.2895 67.2572 86.6419C66.3195 84.9942 66.2266 83.2675 67.0505 82.7987C67.8743 82.3298 69.3052 83.2807 70.2491 84.9392Z" fill="#373C44"/>
<path id="Vector_8" d="M98.1961 69.6947C99.1338 71.3424 99.2267 73.069 98.4029 73.5379C97.5791 74.0067 96.142 73.045 95.2043 71.3974C94.2666 69.7497 94.1799 68.0339 95.0037 67.5651C95.8276 67.0962 97.2585 68.047 98.1961 69.6947Z" fill="#373C44"/>
<path id="Vector_9" d="M83.5036 80.0363C83.1233 80.755 82.7416 81.4459 82.3861 82.1074C82.0307 82.7689 81.7833 83.5698 81.9869 83.9275C82.0671 84.0684 82.2308 84.2049 82.6035 84.2798C82.9253 84.3631 83.2612 84.3773 83.5889 84.3217C84.2964 84.1001 84.8881 83.6087 85.2358 82.9539C85.2101 83.395 85.0635 83.8205 84.8121 84.1838C84.5607 84.5471 84.2142 84.8341 83.8105 85.0136C83.3766 85.1788 82.9061 85.2235 82.4489 85.1427C82.1789 85.1228 81.918 85.0361 81.6898 84.8904C81.4617 84.7448 81.2733 84.5447 81.1416 84.3081C80.9753 83.8238 81.0028 83.2938 81.2184 82.8293C81.3756 82.4341 81.5827 82.0607 81.8346 81.7181C82.2981 81.0724 82.8614 80.5047 83.5036 80.0363Z" fill="#373C44"/>
<path id="Vector_10" d="M83.3364 89.4024C84.2255 89.4606 85.1181 89.4331 86.002 89.3205C86.8595 89.2353 87.6933 88.9896 88.4599 88.5962C89.2086 88.2286 89.8531 87.6792 90.3346 86.9983C90.8441 86.2741 91.2724 85.4962 91.6119 84.6785C91.5945 85.1429 91.541 85.6052 91.4517 86.0612C91.3467 86.5272 91.1772 86.9763 90.9481 87.3954C90.4941 88.2733 89.7736 88.9847 88.8901 89.4276C88.0238 89.8473 87.0729 90.0632 86.1103 90.0588C85.1477 90.0544 84.1989 89.8299 83.3364 89.4024Z" fill="#373C44"/>
<path id="Vector_11" d="M74.4953 94.6202C74.8491 95.2419 75.0107 95.9546 74.9595 96.6682C74.9083 97.3817 74.6466 98.064 74.2076 98.6289C73.7685 99.1937 73.1719 99.6157 72.4931 99.8414C71.8143 100.067 71.0838 100.086 70.394 99.8971C69.7041 99.7076 69.0859 99.3179 68.6176 98.7771C68.1492 98.2363 67.8518 97.5689 67.7628 96.859C67.6739 96.1492 67.7974 95.4289 68.1178 94.7893C68.4381 94.1497 68.941 93.6194 69.5627 93.2656C70.3965 92.7911 71.3845 92.6673 72.3096 92.9213C73.2346 93.1753 74.0208 93.7864 74.4953 94.6202Z" fill="#CE8282"/>
<path id="Vector_12" d="M105.877 75.9283C106.244 76.547 106.417 77.2609 106.376 77.9788C106.335 78.6967 106.08 79.386 105.645 79.9586C105.211 80.5313 104.615 80.9614 103.934 81.1939C103.254 81.4264 102.52 81.4508 101.825 81.264C101.131 81.0772 100.508 80.6877 100.036 80.1452C99.5641 79.6027 99.2645 78.9319 99.1756 78.2183C99.0867 77.5048 99.2126 76.7809 99.537 76.1392C99.8614 75.4975 100.37 74.967 100.997 74.6156C101.821 74.1541 102.793 74.0331 103.704 74.2784C104.616 74.5236 105.396 75.1158 105.877 75.9283Z" fill="#CE8282"/>
<path id="Vector_13" d="M88.7707 64.2525C88.7078 63.2555 88.9318 62.2614 89.4165 61.3879C89.9011 60.5144 90.626 59.7981 91.5051 59.3238C92.4049 58.8679 93.4091 58.6579 94.4161 58.7148C94.8982 58.7481 95.3768 58.8214 95.8468 58.9339C96.2979 59.0815 96.7372 59.2633 97.1608 59.4776C96.6888 59.531 96.2248 59.5224 95.7683 59.5526C95.3119 59.5827 94.8725 59.6175 94.4191 59.7033C93.5951 59.8137 92.7962 60.0645 92.057 60.4449C91.3213 60.8232 90.674 61.353 90.1577 61.9994C89.6081 62.6931 89.1426 63.4494 88.7707 64.2525Z" fill="#373C44"/>
<path id="Vector_14" d="M58.7765 81.3224C58.7136 80.3254 58.9377 79.3313 59.4224 78.4578C59.907 77.5843 60.6319 76.868 61.511 76.3937C62.4108 75.9378 63.415 75.7277 64.422 75.7847C64.9041 75.818 65.3827 75.8912 65.8527 76.0037C66.3021 76.156 66.741 76.3377 67.1666 76.5475C66.6838 76.607 66.2306 76.5923 65.7742 76.6224C65.3177 76.6526 64.8783 76.6874 64.4249 76.7732C63.601 76.8836 62.802 77.1344 62.0628 77.5147C61.3271 77.8931 60.6799 78.4228 60.1635 79.0692C59.614 79.763 59.1484 80.5193 58.7765 81.3224Z" fill="#373C44"/>
<path id="Vector_15" d="M49.6106 88.7199C49.8204 89.0884 43.4442 68.4787 47.21 62.9918C47.3577 68.7486 46.8266 69.8831 46.8266 69.8831C46.8266 69.8831 54.3765 64.338 54.2903 57.0251C55.0691 57.9006 55.6315 58.9467 55.932 60.0793C56.2326 61.2119 56.263 62.3992 56.0208 63.5457C56.0208 63.5457 74.9422 62.7512 78.6973 47.5119C79.6409 48.0951 80.4228 48.9059 80.9715 49.87C81.5201 50.834 81.8179 51.9204 81.8373 53.0295C81.8373 53.0295 90.8779 47.8845 89.3583 41.0285C96.2541 44.5723 102.444 49.3469 107.622 55.1168C107.622 55.1168 91.0873 17.5138 60.251 35.8522C28.665 54.689 46.787 82.7496 49.6106 88.7199Z" fill="#373C44"/>
<path id="Vector_16" d="M63.3392 35.0991C63.3392 35.0991 58.1827 29.9973 60.036 28.2107C61.8894 26.424 64.2389 34.5871 64.2389 34.5871C64.2389 34.5871 62.2402 27.5446 64.5747 28.3686C66.9093 29.1927 67.5181 35.7345 63.3392 35.0991Z" fill="#373C44"/>
</g>
</svg>
